<?xml version="1.0" encoding="UTF-8" standalone="no"?>
<!-- Created with Inkscape (http://www.inkscape.org/) -->

<svg
   width="120.38526mm"
   height="120.38526mm"
   viewBox="0 0 120.38526 120.38526"
   version="1.1"
   id="svg1"
   xml:space="preserve"
   inkscape:version="1.3.2 (091e20ef0f, 2023-11-25, custom)"
   sodipodi:docname="qr_ipyaladin.svg"
   xmlns:inkscape="http://www.inkscape.org/namespaces/inkscape"
   xmlns:sodipodi="http://sodipodi.sourceforge.net/DTD/sodipodi-0.dtd"
   xmlns:xlink="http://www.w3.org/1999/xlink"
   xmlns="http://www.w3.org/2000/svg"
   xmlns:svg="http://www.w3.org/2000/svg"><sodipodi:namedview
     id="namedview1"
     pagecolor="#505050"
     bordercolor="#ffffff"
     borderopacity="1"
     inkscape:showpageshadow="0"
     inkscape:pageopacity="0"
     inkscape:pagecheckerboard="1"
     inkscape:deskcolor="#d1d1d1"
     inkscape:document-units="mm"
     inkscape:zoom="0.71624579"
     inkscape:cx="228.27359"
     inkscape:cy="135.42837"
     inkscape:window-width="1920"
     inkscape:window-height="1008"
     inkscape:window-x="0"
     inkscape:window-y="0"
     inkscape:window-maximized="1"
     inkscape:current-layer="svg1" /><defs
     id="defs1"><linearGradient
       id="linearGradient8"
       inkscape:collect="always"><stop
         style="stop-color:#962d2f;stop-opacity:1"
         offset="0"
         id="stop8" /><stop
         style="stop-color:#652c77;stop-opacity:1;"
         offset="1"
         id="stop9" /></linearGradient><defs
       id="defs9">
			<rect
   id="SVGID_1_"
   y="-23.023001"
   width="366.272"
   height="474"
   x="0" />
		</defs><clipPath
       id="SVGID_2_">
			<use
   xlink:href="#SVGID_1_"
   overflow="visible"
   id="use11"
   style="overflow:visible"
   x="0"
   y="0"
   width="100%"
   height="100%" />
		</clipPath><defs
       id="defs15">
				<rect
   x="0"
   height="474"
   width="366.272"
   y="-23.023001"
   id="SVGID_3_" />
			</defs><clipPath
       id="SVGID_4_">
				<use
   height="100%"
   width="100%"
   y="0"
   x="0"
   style="overflow:visible"
   id="use17"
   overflow="visible"
   xlink:href="#SVGID_3_" />
			</clipPath><rect
       id="rect2"
       y="-23.023001"
       width="366.272"
       height="474"
       x="0" /><rect
       x="0"
       height="474"
       width="366.272"
       y="-23.023001"
       id="rect3" /><rect
       x="-0.31446874"
       y="-5.3774157"
       width="8.0503998"
       height="10.125894"
       id="rect7" /><rect
       x="-4.0625"
       y="-9.8125"
       width="17.4375"
       height="15.1875"
       id="rect1-6" /><rect
       x="-46"
       y="16.25"
       width="65.875"
       height="13.875"
       id="rect85" /><inkscape:path-effect
       effect="powerclip"
       id="path-effect84"
       is_visible="true"
       lpeversion="1"
       inverse="true"
       flatten="false"
       hide_clip="false"
       message="Utilise la règle de remplissage « fill-rule: evenodd » de la boîte de dialogue &lt;b&gt;Fond et contour&lt;/b&gt; en l'absence de résultat de mise à plat après une conversion en chemin." /><rect
       x="390.25"
       y="534.5625"
       width="60.25"
       height="17.6875"
       id="rect28" /><filter
       inkscape:label="Pixellize"
       inkscape:menu="Pixel Tools"
       inkscape:menu-tooltip="Reduce or remove antialiasing around shapes"
       style="color-interpolation-filters:sRGB"
       id="filter41"
       x="0"
       y="0"
       width="1"
       height="1"><feColorMatrix
         values="1 0 0 0 0 0 1 0 0 0 0 0 1 0 0 0 0 0 1000 -500 "
         id="feColorMatrix41" /></filter><clipPath
       clipPathUnits="userSpaceOnUse"
       id="clipPath30"><path
         style="fill:none;fill-opacity:1;stroke:#000000;stroke-width:0.0499999;stroke-linejoin:bevel;stroke-dasharray:none;stroke-opacity:1"
         d="m 112.65875,140.92956 c 0,-0.004 0.0586,-0.0585 0.13023,-0.12196 0.1725,-0.15288 0.55567,-0.53607 0.70657,-0.70659 0.72614,-0.82059 1.13293,-1.55366 1.24437,-2.24246 0.0194,-0.11999 0.0194,-0.40752 -1e-4,-0.53273 -0.0449,-0.28879 -0.15403,-0.51088 -0.35211,-0.71646 -0.3546,-0.36805 -0.87776,-0.54816 -1.64214,-0.56536 -0.48236,-0.0109 -0.99564,0.0574 -1.59812,0.21257 -0.68513,0.17643 -1.3446,0.42744 -2.0399,0.77643 -0.14097,0.0708 -0.25911,0.12989 -0.26252,0.13141 -0.003,0.002 -0.006,-8e-4 -0.006,-0.005 0,-0.0228 0.29088,-0.21992 0.57888,-0.39231 0.74046,-0.44323 1.5265,-0.80707 2.26953,-1.0505 0.62799,-0.20574 1.18456,-0.31895 1.77508,-0.36105 0.17786,-0.0127 0.53537,-0.0107 0.671,0.004 0.47346,0.0502 0.82961,0.16784 1.1079,0.36582 0.0862,0.0613 0.2459,0.21889 0.30912,0.30502 0.13279,0.18091 0.20944,0.39911 0.22618,0.64389 0.0298,0.43603 -0.0657,0.83265 -0.32384,1.34451 -0.26921,0.5338 -0.67013,1.0606 -1.23895,1.62791 -0.45546,0.45428 -0.91734,0.84652 -1.40862,1.19627 -0.12561,0.0894 -0.14636,0.10176 -0.14636,0.087 z"
         id="path31" /></clipPath><clipPath
       clipPathUnits="userSpaceOnUse"
       id="clipPath34"><path
         style="fill:none;fill-opacity:1;stroke:#000000;stroke-width:0.0499999;stroke-linejoin:bevel;stroke-dasharray:none;stroke-opacity:1"
         d="m 112.65875,140.92956 c 0,-0.004 0.0586,-0.0585 0.13023,-0.12196 0.1725,-0.15288 0.55567,-0.53607 0.70657,-0.70659 0.72614,-0.82059 1.13293,-1.55366 1.24437,-2.24246 0.0194,-0.11999 0.0194,-0.40752 -1e-4,-0.53273 -0.0449,-0.28879 -0.15403,-0.51088 -0.35211,-0.71646 -0.3546,-0.36805 -0.87776,-0.54816 -1.64214,-0.56536 -0.48236,-0.0109 -0.99564,0.0574 -1.59812,0.21257 -0.68513,0.17643 -1.3446,0.42744 -2.0399,0.77643 -0.14097,0.0708 -0.25911,0.12989 -0.26252,0.13141 -0.003,0.002 -0.006,-8e-4 -0.006,-0.005 0,-0.0228 0.29088,-0.21992 0.57888,-0.39231 0.74046,-0.44323 1.5265,-0.80707 2.26953,-1.0505 0.62799,-0.20574 1.18456,-0.31895 1.77508,-0.36105 0.17786,-0.0127 0.53537,-0.0107 0.671,0.004 0.47346,0.0502 0.82961,0.16784 1.1079,0.36582 0.0862,0.0613 0.2459,0.21889 0.30912,0.30502 0.13279,0.18091 0.20944,0.39911 0.22618,0.64389 0.0298,0.43603 -0.0657,0.83265 -0.32384,1.34451 -0.26921,0.5338 -0.67013,1.0606 -1.23895,1.62791 -0.45546,0.45428 -0.91734,0.84652 -1.40862,1.19627 -0.12561,0.0894 -0.14636,0.10176 -0.14636,0.087 z"
         id="path35" /></clipPath><clipPath
       clipPathUnits="userSpaceOnUse"
       id="clipPath37"><path
         style="fill:none;fill-opacity:1;stroke:#000000;stroke-width:0.0499999;stroke-linejoin:bevel;stroke-dasharray:none;stroke-opacity:1"
         d="m 112.65875,140.92956 c 0,-0.004 0.0586,-0.0585 0.13023,-0.12196 0.1725,-0.15288 0.55567,-0.53607 0.70657,-0.70659 0.72614,-0.82059 1.13293,-1.55366 1.24437,-2.24246 0.0194,-0.11999 0.0194,-0.40752 -1e-4,-0.53273 -0.0449,-0.28879 -0.15403,-0.51088 -0.35211,-0.71646 -0.3546,-0.36805 -0.87776,-0.54816 -1.64214,-0.56536 -0.48236,-0.0109 -0.99564,0.0574 -1.59812,0.21257 -0.68513,0.17643 -1.3446,0.42744 -2.0399,0.77643 -0.14097,0.0708 -0.25911,0.12989 -0.26252,0.13141 -0.003,0.002 -0.006,-8e-4 -0.006,-0.005 0,-0.0228 0.29088,-0.21992 0.57888,-0.39231 0.74046,-0.44323 1.5265,-0.80707 2.26953,-1.0505 0.62799,-0.20574 1.18456,-0.31895 1.77508,-0.36105 0.17786,-0.0127 0.53537,-0.0107 0.671,0.004 0.47346,0.0502 0.82961,0.16784 1.1079,0.36582 0.0862,0.0613 0.2459,0.21889 0.30912,0.30502 0.13279,0.18091 0.20944,0.39911 0.22618,0.64389 0.0298,0.43603 -0.0657,0.83265 -0.32384,1.34451 -0.26921,0.5338 -0.67013,1.0606 -1.23895,1.62791 -0.45546,0.45428 -0.91734,0.84652 -1.40862,1.19627 -0.12561,0.0894 -0.14636,0.10176 -0.14636,0.087 z"
         id="path38" /></clipPath><rect
       x="-4.0625"
       y="-9.8125"
       width="17.4375"
       height="15.1875"
       id="rect4" /><rect
       x="-46"
       y="16.25"
       width="65.875"
       height="13.875"
       id="rect6" /><rect
       id="rect5"
       y="-23.023001"
       width="366.272"
       height="474"
       x="0" /><rect
       x="0"
       height="474"
       width="366.272"
       y="-23.023001"
       id="rect8" /><radialGradient
       inkscape:collect="always"
       xlink:href="#linearGradient8"
       id="radialGradient9"
       cx="227.5"
       cy="227.5"
       fx="227.5"
       fy="227.5"
       r="199.5"
       gradientUnits="userSpaceOnUse" /><radialGradient
       inkscape:collect="always"
       xlink:href="#linearGradient8"
       id="radialGradient10"
       gradientUnits="userSpaceOnUse"
       cx="227.5"
       cy="227.5"
       fx="227.5"
       fy="227.5"
       r="199.5" /></defs><g
     inkscape:label="Calque 1"
     inkscape:groupmode="layer"
     id="layer1"
     transform="translate(-44.807369,-112.59822)" /><rect
     x="-7.1054274e-15"
     y="0"
     width="120.38526"
     height="120.38526"
     style="fill:#ffffff;stroke:none;stroke-width:0.264583"
     id="rect1" /><g
     style="fill:url(#radialGradient9);stroke:none"
     id="g1"
     transform="matrix(0.264583,0,0,0.264583,-1.2321777e-6,-8.2519532e-7)"><path
       d="m 28,28 h 7 v 7 h -7 z m 7,0 h 7 v 7 h -7 z m 7,0 h 7 v 7 h -7 z m 7,0 h 7 v 7 h -7 z m 7,0 h 7 v 7 h -7 z m 7,0 h 7 v 7 h -7 z m 7,0 h 7 v 7 h -7 z m 21,0 h 7 v 7 h -7 z m 7,0 h 7 v 7 h -7 z m 14,0 h 7 v 7 h -7 z m 7,0 h 7 v 7 h -7 z m 7,0 h 7 v 7 h -7 z m 7,0 h 7 v 7 h -7 z m 63,0 h 7 v 7 h -7 z m 7,0 h 7 v 7 h -7 z m 7,0 h 7 v 7 h -7 z m 7,0 h 7 v 7 h -7 z m 7,0 h 7 v 7 h -7 z m 7,0 h 7 v 7 h -7 z m 56,0 h 7 v 7 h -7 z m 7,0 h 7 v 7 h -7 z m 14,0 h 7 v 7 h -7 z m 14,0 h 7 v 7 h -7 z m 14,0 h 7 v 7 h -7 z m 7,0 h 7 v 7 h -7 z m 7,0 h 7 v 7 h -7 z m 7,0 h 7 v 7 h -7 z m 21,0 h 7 v 7 h -7 z m 7,0 h 7 v 7 h -7 z m 7,0 h 7 v 7 h -7 z m 7,0 h 7 v 7 h -7 z m 7,0 h 7 v 7 h -7 z m 7,0 h 7 v 7 h -7 z m 7,0 h 7 v 7 h -7 z M 28,35 h 7 v 7 h -7 z m 42,0 h 7 v 7 h -7 z m 21,0 h 7 v 7 h -7 z m 7,0 h 7 v 7 h -7 z m 14,0 h 7 v 7 h -7 z m 21,0 h 7 v 7 h -7 z m 7,0 h 7 v 7 h -7 z m 7,0 h 7 v 7 h -7 z m 7,0 h 7 v 7 h -7 z m 21,0 h 7 v 7 h -7 z m 14,0 h 7 v 7 h -7 z m 7,0 h 7 v 7 h -7 z m 7,0 h 7 v 7 h -7 z m 49,0 h 7 v 7 h -7 z m 7,0 h 7 v 7 h -7 z m 7,0 h 7 v 7 h -7 z m 28,0 h 7 v 7 h -7 z m 49,0 h 7 v 7 h -7 z m 14,0 h 7 v 7 h -7 z m 21,0 h 7 v 7 h -7 z m 42,0 h 7 v 7 h -7 z M 28,42 h 7 v 7 h -7 z m 14,0 h 7 v 7 h -7 z m 7,0 h 7 v 7 h -7 z m 7,0 h 7 v 7 h -7 z m 14,0 h 7 v 7 h -7 z m 14,0 h 7 v 7 h -7 z m 7,0 h 7 v 7 h -7 z m 7,0 h 7 v 7 h -7 z m 7,0 h 7 v 7 h -7 z m 42,0 h 7 v 7 h -7 z m 28,0 h 7 v 7 h -7 z m 14,0 h 7 v 7 h -7 z m 7,0 h 7 v 7 h -7 z m 7,0 h 7 v 7 h -7 z m 7,0 h 7 v 7 h -7 z m 7,0 h 7 v 7 h -7 z m 7,0 h 7 v 7 h -7 z m 35,0 h 7 v 7 h -7 z m 14,0 h 7 v 7 h -7 z m 21,0 h 7 v 7 h -7 z m 7,0 h 7 v 7 h -7 z m 7,0 h 7 v 7 h -7 z m 7,0 h 7 v 7 h -7 z m 14,0 h 7 v 7 h -7 z m 7,0 h 7 v 7 h -7 z m 7,0 h 7 v 7 h -7 z m 7,0 h 7 v 7 h -7 z m 7,0 h 7 v 7 h -7 z m 21,0 h 7 v 7 h -7 z m 14,0 h 7 v 7 h -7 z m 7,0 h 7 v 7 h -7 z m 7,0 h 7 v 7 h -7 z m 14,0 h 7 v 7 h -7 z M 28,49 h 7 v 7 h -7 z m 14,0 h 7 v 7 h -7 z m 7,0 h 7 v 7 h -7 z m 7,0 h 7 v 7 h -7 z m 14,0 h 7 v 7 h -7 z m 14,0 h 7 v 7 h -7 z m 7,0 h 7 v 7 h -7 z m 7,0 h 7 v 7 h -7 z m 14,0 h 7 v 7 h -7 z m 14,0 h 7 v 7 h -7 z m 7,0 h 7 v 7 h -7 z m 7,0 h 7 v 7 h -7 z m 7,0 h 7 v 7 h -7 z m 21,0 h 7 v 7 h -7 z m 7,0 h 7 v 7 h -7 z m 28,0 h 7 v 7 h -7 z m 7,0 h 7 v 7 h -7 z m 7,0 h 7 v 7 h -7 z m 14,0 h 7 v 7 h -7 z m 7,0 h 7 v 7 h -7 z m 7,0 h 7 v 7 h -7 z m 28,0 h 7 v 7 h -7 z m 28,0 h 7 v 7 h -7 z m 28,0 h 7 v 7 h -7 z m 7,0 h 7 v 7 h -7 z m 21,0 h 7 v 7 h -7 z m 21,0 h 7 v 7 h -7 z m 14,0 h 7 v 7 h -7 z m 7,0 h 7 v 7 h -7 z m 7,0 h 7 v 7 h -7 z m 14,0 h 7 v 7 h -7 z M 28,56 h 7 v 7 h -7 z m 14,0 h 7 v 7 h -7 z m 7,0 h 7 v 7 h -7 z m 7,0 h 7 v 7 h -7 z m 14,0 h 7 v 7 h -7 z m 21,0 h 7 v 7 h -7 z m 21,0 h 7 v 7 h -7 z m 63,0 h 7 v 7 h -7 z m 7,0 h 7 v 7 h -7 z m 21,0 h 7 v 7 h -7 z m 7,0 h 7 v 7 h -7 z m 7,0 h 7 v 7 h -7 z m 7,0 h 7 v 7 h -7 z m 7,0 h 7 v 7 h -7 z m 7,0 h 7 v 7 h -7 z m 28,0 h 7 v 7 h -7 z m 21,0 h 7 v 7 h -7 z m 14,0 h 7 v 7 h -7 z m 7,0 h 7 v 7 h -7 z m 7,0 h 7 v 7 h -7 z m 7,0 h 7 v 7 h -7 z m 7,0 h 7 v 7 h -7 z m 14,0 h 7 v 7 h -7 z m 14,0 h 7 v 7 h -7 z m 21,0 h 7 v 7 h -7 z m 14,0 h 7 v 7 h -7 z m 7,0 h 7 v 7 h -7 z m 7,0 h 7 v 7 h -7 z m 14,0 h 7 v 7 h -7 z M 28,63 h 7 v 7 h -7 z m 42,0 h 7 v 7 h -7 z m 28,0 h 7 v 7 h -7 z m 98,0 h 7 v 7 h -7 z m 7,0 h 7 v 7 h -7 z m 7,0 h 7 v 7 h -7 z m 28,0 h 7 v 7 h -7 z m 14,0 h 7 v 7 h -7 z m 21,0 h 7 v 7 h -7 z m 28,0 h 7 v 7 h -7 z m 14,0 h 7 v 7 h -7 z m 7,0 h 7 v 7 h -7 z m 7,0 h 7 v 7 h -7 z m 7,0 h 7 v 7 h -7 z m 7,0 h 7 v 7 h -7 z m 7,0 h 7 v 7 h -7 z m 28,0 h 7 v 7 h -7 z m 42,0 h 7 v 7 h -7 z M 28,70 h 7 v 7 h -7 z m 7,0 h 7 v 7 h -7 z m 7,0 h 7 v 7 h -7 z m 7,0 h 7 v 7 h -7 z m 7,0 h 7 v 7 h -7 z m 7,0 h 7 v 7 h -7 z m 7,0 h 7 v 7 h -7 z m 14,0 h 7 v 7 h -7 z m 14,0 h 7 v 7 h -7 z m 14,0 h 7 v 7 h -7 z m 14,0 h 7 v 7 h -7 z m 14,0 h 7 v 7 h -7 z m 14,0 h 7 v 7 h -7 z m 14,0 h 7 v 7 h -7 z m 14,0 h 7 v 7 h -7 z m 14,0 h 7 v 7 h -7 z m 14,0 h 7 v 7 h -7 z m 14,0 h 7 v 7 h -7 z m 14,0 h 7 v 7 h -7 z m 14,0 h 7 v 7 h -7 z m 14,0 h 7 v 7 h -7 z m 14,0 h 7 v 7 h -7 z m 14,0 h 7 v 7 h -7 z m 14,0 h 7 v 7 h -7 z m 14,0 h 7 v 7 h -7 z m 14,0 h 7 v 7 h -7 z m 14,0 h 7 v 7 h -7 z m 14,0 h 7 v 7 h -7 z m 14,0 h 7 v 7 h -7 z m 7,0 h 7 v 7 h -7 z m 7,0 h 7 v 7 h -7 z m 7,0 h 7 v 7 h -7 z m 7,0 h 7 v 7 h -7 z m 7,0 h 7 v 7 h -7 z m 7,0 h 7 v 7 h -7 z M 98,77 h 7 v 7 h -7 z m 7,0 h 7 v 7 h -7 z m 14,0 h 7 v 7 h -7 z m 21,0 h 7 v 7 h -7 z m 7,0 h 7 v 7 h -7 z m 7,0 h 7 v 7 h -7 z m 7,0 h 7 v 7 h -7 z m 14,0 h 7 v 7 h -7 z m 7,0 h 7 v 7 h -7 z m 21,0 h 7 v 7 h -7 z m 7,0 h 7 v 7 h -7 z m 28,0 h 7 v 7 h -7 z m 7,0 h 7 v 7 h -7 z m 21,0 h 7 v 7 h -7 z m 14,0 h 7 v 7 h -7 z m 21,0 h 7 v 7 h -7 z m 14,0 h 7 v 7 h -7 z m 14,0 h 7 v 7 h -7 z m 7,0 h 7 v 7 h -7 z m 28,0 h 7 v 7 h -7 z M 49,84 h 7 v 7 h -7 z m 7,0 h 7 v 7 h -7 z m 14,0 h 7 v 7 h -7 z m 7,0 h 7 v 7 h -7 z m 28,0 h 7 v 7 h -7 z m 7,0 h 7 v 7 h -7 z m 21,0 h 7 v 7 h -7 z m 7,0 h 7 v 7 h -7 z m 7,0 h 7 v 7 h -7 z m 14,0 h 7 v 7 h -7 z m 28,0 h 7 v 7 h -7 z m 7,0 h 7 v 7 h -7 z m 7,0 h 7 v 7 h -7 z m 7,0 h 7 v 7 h -7 z m 7,0 h 7 v 7 h -7 z m 7,0 h 7 v 7 h -7 z m 7,0 h 7 v 7 h -7 z m 7,0 h 7 v 7 h -7 z m 21,0 h 7 v 7 h -7 z m 7,0 h 7 v 7 h -7 z m 7,0 h 7 v 7 h -7 z m 7,0 h 7 v 7 h -7 z m 7,0 h 7 v 7 h -7 z m 7,0 h 7 v 7 h -7 z m 7,0 h 7 v 7 h -7 z m 7,0 h 7 v 7 h -7 z m 28,0 h 7 v 7 h -7 z m 14,0 h 7 v 7 h -7 z m 14,0 h 7 v 7 h -7 z m 35,0 h 7 v 7 h -7 z m 7,0 h 7 v 7 h -7 z M 35,91 h 7 v 7 h -7 z m 14,0 h 7 v 7 h -7 z m 7,0 h 7 v 7 h -7 z m 21,0 h 7 v 7 h -7 z m 7,0 h 7 v 7 h -7 z m 7,0 h 7 v 7 h -7 z m 28,0 h 7 v 7 h -7 z m 14,0 h 7 v 7 h -7 z m 7,0 h 7 v 7 h -7 z m 35,0 h 7 v 7 h -7 z m 14,0 h 7 v 7 h -7 z m 7,0 h 7 v 7 h -7 z m 7,0 h 7 v 7 h -7 z m 7,0 h 7 v 7 h -7 z m 7,0 h 7 v 7 h -7 z m 14,0 h 7 v 7 h -7 z m 21,0 h 7 v 7 h -7 z m 7,0 h 7 v 7 h -7 z m 14,0 h 7 v 7 h -7 z m 14,0 h 7 v 7 h -7 z m 14,0 h 7 v 7 h -7 z m 7,0 h 7 v 7 h -7 z m 7,0 h 7 v 7 h -7 z m 35,0 h 7 v 7 h -7 z m 7,0 h 7 v 7 h -7 z m 14,0 h 7 v 7 h -7 z m 7,0 h 7 v 7 h -7 z m 7,0 h 7 v 7 h -7 z m 14,0 h 7 v 7 h -7 z m 14,0 h 7 v 7 h -7 z m 7,0 h 7 v 7 h -7 z M 35,98 h 7 v 7 h -7 z m 14,0 h 7 v 7 h -7 z m 14,0 h 7 v 7 h -7 z m 7,0 h 7 v 7 h -7 z m 7,0 h 7 v 7 h -7 z m 14,0 h 7 v 7 h -7 z m 7,0 h 7 v 7 h -7 z m 21,0 h 7 v 7 h -7 z m 28,0 h 7 v 7 h -7 z m 14,0 h 7 v 7 h -7 z m 7,0 h 7 v 7 h -7 z m 28,0 h 7 v 7 h -7 z m 14,0 h 7 v 7 h -7 z m 7,0 h 7 v 7 h -7 z m 7,0 h 7 v 7 h -7 z m 7,0 h 7 v 7 h -7 z m 7,0 h 7 v 7 h -7 z m 7,0 h 7 v 7 h -7 z m 7,0 h 7 v 7 h -7 z m 14,0 h 7 v 7 h -7 z m 7,0 h 7 v 7 h -7 z m 21,0 h 7 v 7 h -7 z m 7,0 h 7 v 7 h -7 z m 14,0 h 7 v 7 h -7 z m 7,0 h 7 v 7 h -7 z m 7,0 h 7 v 7 h -7 z m 28,0 h 7 v 7 h -7 z m 35,0 h 7 v 7 h -7 z m 7,0 h 7 v 7 h -7 z m 21,0 h 7 v 7 h -7 z m -378,7 h 7 v 7 h -7 z m 7,0 h 7 v 7 h -7 z m 14,0 h 7 v 7 h -7 z m 14,0 h 7 v 7 h -7 z m 14,0 h 7 v 7 h -7 z m 7,0 h 7 v 7 h -7 z m 14,0 h 7 v 7 h -7 z m 7,0 h 7 v 7 h -7 z m 21,0 h 7 v 7 h -7 z m 14,0 h 7 v 7 h -7 z m 14,0 h 7 v 7 h -7 z m 21,0 h 7 v 7 h -7 z m 7,0 h 7 v 7 h -7 z m 7,0 h 7 v 7 h -7 z m 7,0 h 7 v 7 h -7 z m 14,0 h 7 v 7 h -7 z m 14,0 h 7 v 7 h -7 z m 14,0 h 7 v 7 h -7 z m 21,0 h 7 v 7 h -7 z m 21,0 h 7 v 7 h -7 z m 14,0 h 7 v 7 h -7 z m 7,0 h 7 v 7 h -7 z m 7,0 h 7 v 7 h -7 z m 28,0 h 7 v 7 h -7 z m 28,0 h 7 v 7 h -7 z m 7,0 h 7 v 7 h -7 z m 28,0 h 7 v 7 h -7 z m -364,7 h 7 v 7 h -7 z m 14,0 h 7 v 7 h -7 z m 7,0 h 7 v 7 h -7 z m 21,0 h 7 v 7 h -7 z m 7,0 h 7 v 7 h -7 z m 7,0 h 7 v 7 h -7 z m 7,0 h 7 v 7 h -7 z m 7,0 h 7 v 7 h -7 z m 7,0 h 7 v 7 h -7 z m 7,0 h 7 v 7 h -7 z m 21,0 h 7 v 7 h -7 z m 7,0 h 7 v 7 h -7 z m 7,0 h 7 v 7 h -7 z m 28,0 h 7 v 7 h -7 z m 14,0 h 7 v 7 h -7 z m 42,0 h 7 v 7 h -7 z m 7,0 h 7 v 7 h -7 z m 14,0 h 7 v 7 h -7 z m 14,0 h 7 v 7 h -7 z m 7,0 h 7 v 7 h -7 z m 28,0 h 7 v 7 h -7 z m 42,0 h 7 v 7 h -7 z m 14,0 h 7 v 7 h -7 z m 14,0 h 7 v 7 h -7 z m 7,0 h 7 v 7 h -7 z m 7,0 h 7 v 7 h -7 z m 7,0 h 7 v 7 h -7 z m 7,0 h 7 v 7 h -7 z m -378,7 h 7 v 7 h -7 z m 7,0 h 7 v 7 h -7 z m 28,0 h 7 v 7 h -7 z m 7,0 h 7 v 7 h -7 z m 7,0 h 7 v 7 h -7 z m 14,0 h 7 v 7 h -7 z m 7,0 h 7 v 7 h -7 z m 7,0 h 7 v 7 h -7 z m 21,0 h 7 v 7 h -7 z m 7,0 h 7 v 7 h -7 z m 7,0 h 7 v 7 h -7 z m 7,0 h 7 v 7 h -7 z m 21,0 h 7 v 7 h -7 z m 7,0 h 7 v 7 h -7 z m 21,0 h 7 v 7 h -7 z m 7,0 h 7 v 7 h -7 z m 7,0 h 7 v 7 h -7 z m 28,0 h 7 v 7 h -7 z m 14,0 h 7 v 7 h -7 z m 7,0 h 7 v 7 h -7 z m 21,0 h 7 v 7 h -7 z m 14,0 h 7 v 7 h -7 z m 14,0 h 7 v 7 h -7 z m 7,0 h 7 v 7 h -7 z m 35,0 h 7 v 7 h -7 z m 14,0 h 7 v 7 h -7 z m 28,0 h 7 v 7 h -7 z m 7,0 h 7 v 7 h -7 z m -371,7 h 7 v 7 h -7 z m 14,0 h 7 v 7 h -7 z m 7,0 h 7 v 7 h -7 z m 7,0 h 7 v 7 h -7 z m 35,0 h 7 v 7 h -7 z m 14,0 h 7 v 7 h -7 z m 14,0 h 7 v 7 h -7 z m 28,0 h 7 v 7 h -7 z m 14,0 h 7 v 7 h -7 z m 14,0 h 7 v 7 h -7 z m 14,0 h 7 v 7 h -7 z m 7,0 h 7 v 7 h -7 z m 7,0 h 7 v 7 h -7 z m 35,0 h 7 v 7 h -7 z m 14,0 h 7 v 7 h -7 z m 28,0 h 7 v 7 h -7 z m 21,0 h 7 v 7 h -7 z m 7,0 h 7 v 7 h -7 z m 14,0 h 7 v 7 h -7 z m 21,0 h 7 v 7 h -7 z m 7,0 h 7 v 7 h -7 z m 7,0 h 7 v 7 h -7 z m 7,0 h 7 v 7 h -7 z m 14,0 h 7 v 7 h -7 z m 7,0 h 7 v 7 h -7 z m 7,0 h 7 v 7 h -7 z m -378,7 h 7 v 7 h -7 z m 14,0 h 7 v 7 h -7 z m 7,0 h 7 v 7 h -7 z m 35,0 h 7 v 7 h -7 z m 21,0 h 7 v 7 h -7 z m 35,0 h 7 v 7 h -7 z m 7,0 h 7 v 7 h -7 z m 35,0 h 7 v 7 h -7 z m 28,0 h 7 v 7 h -7 z m 7,0 h 7 v 7 h -7 z m 14,0 h 7 v 7 h -7 z m 7,0 h 7 v 7 h -7 z m 14,0 h 7 v 7 h -7 z m 14,0 h 7 v 7 h -7 z m 14,0 h 7 v 7 h -7 z m 14,0 h 7 v 7 h -7 z m 7,0 h 7 v 7 h -7 z m 14,0 h 7 v 7 h -7 z m 14,0 h 7 v 7 h -7 z m 7,0 h 7 v 7 h -7 z m 14,0 h 7 v 7 h -7 z m 14,0 h 7 v 7 h -7 z m 7,0 h 7 v 7 h -7 z m 21,0 h 7 v 7 h -7 z m 14,0 h 7 v 7 h -7 z m 7,0 h 7 v 7 h -7 z m -371,7 h 7 v 7 h -7 z m 14,0 h 7 v 7 h -7 z m 7,0 h 7 v 7 h -7 z m 7,0 h 7 v 7 h -7 z m 14,0 h 7 v 7 h -7 z m 14,0 h 7 v 7 h -7 z m 14,0 h 7 v 7 h -7 z m 21,0 h 7 v 7 h -7 z m 7,0 h 7 v 7 h -7 z m 7,0 h 7 v 7 h -7 z m 7,0 h 7 v 7 h -7 z m 28,0 h 7 v 7 h -7 z m 14,0 h 7 v 7 h -7 z m 7,0 h 7 v 7 h -7 z m 7,0 h 7 v 7 h -7 z m 21,0 h 7 v 7 h -7 z m 14,0 h 7 v 7 h -7 z m 14,0 h 7 v 7 h -7 z m 21,0 h 7 v 7 h -7 z m 35,0 h 7 v 7 h -7 z m 21,0 h 7 v 7 h -7 z m 14,0 h 7 v 7 h -7 z m 7,0 h 7 v 7 h -7 z m 7,0 h 7 v 7 h -7 z m 28,0 h 7 v 7 h -7 z m 14,0 h 7 v 7 h -7 z m 7,0 h 7 v 7 h -7 z m -385,7 h 7 v 7 h -7 z m 7,0 h 7 v 7 h -7 z m 21,0 h 7 v 7 h -7 z m 7,0 h 7 v 7 h -7 z m 14,0 h 7 v 7 h -7 z m 21,0 h 7 v 7 h -7 z m 7,0 h 7 v 7 h -7 z m 14,0 h 7 v 7 h -7 z m 28,0 h 7 v 7 h -7 z m 14,0 h 7 v 7 h -7 z m 7,0 h 7 v 7 h -7 z m 35,0 h 7 v 7 h -7 z m 7,0 h 7 v 7 h -7 z m 21,0 h 7 v 7 h -7 z m 7,0 h 7 v 7 h -7 z m 7,0 h 7 v 7 h -7 z m 7,0 h 7 v 7 h -7 z m 14,0 h 7 v 7 h -7 z m 21,0 h 7 v 7 h -7 z m 21,0 h 7 v 7 h -7 z m 21,0 h 7 v 7 h -7 z m 14,0 h 7 v 7 h -7 z m 7,0 h 7 v 7 h -7 z m 21,0 h 7 v 7 h -7 z m 7,0 h 7 v 7 h -7 z m 42,0 h 7 v 7 h -7 z m -385,7 h 7 v 7 h -7 z m 21,0 h 7 v 7 h -7 z m 14,0 h 7 v 7 h -7 z m 21,0 h 7 v 7 h -7 z m 7,0 h 7 v 7 h -7 z m 7,0 h 7 v 7 h -7 z m 14,0 h 7 v 7 h -7 z m 7,0 h 7 v 7 h -7 z m 7,0 h 7 v 7 h -7 z m 21,0 h 7 v 7 h -7 z m 7,0 h 7 v 7 h -7 z m 7,0 h 7 v 7 h -7 z m 7,0 h 7 v 7 h -7 z m 28,0 h 7 v 7 h -7 z m 14,0 h 7 v 7 h -7 z m 7,0 h 7 v 7 h -7 z m 42,0 h 7 v 7 h -7 z m 7,0 h 7 v 7 h -7 z m 14,0 h 7 v 7 h -7 z m 21,0 h 7 v 7 h -7 z m 7,0 h 7 v 7 h -7 z m 7,0 h 7 v 7 h -7 z m 7,0 h 7 v 7 h -7 z m 7,0 h 7 v 7 h -7 z m 7,0 h 7 v 7 h -7 z m 14,0 h 7 v 7 h -7 z m 14,0 h 7 v 7 h -7 z m 7,0 h 7 v 7 h -7 z m 21,0 h 7 v 7 h -7 z m 14,0 h 7 v 7 h -7 z m 7,0 h 7 v 7 h -7 z m -392,7 h 7 v 7 h -7 z m 7,0 h 7 v 7 h -7 z m 14,0 h 7 v 7 h -7 z m 7,0 h 7 v 7 h -7 z m 42,0 h 7 v 7 h -7 z m 7,0 h 7 v 7 h -7 z m 14,0 h 7 v 7 h -7 z m 28,0 h 7 v 7 h -7 z m 7,0 h 7 v 7 h -7 z m 14,0 h 7 v 7 h -7 z m 42,0 h 7 v 7 h -7 z m 14,0 h 7 v 7 h -7 z m 7,0 h 7 v 7 h -7 z m 7,0 h 7 v 7 h -7 z m 7,0 h 7 v 7 h -7 z m 7,0 h 7 v 7 h -7 z m 14,0 h 7 v 7 h -7 z m 7,0 h 7 v 7 h -7 z m 7,0 h 7 v 7 h -7 z m 7,0 h 7 v 7 h -7 z m 7,0 h 7 v 7 h -7 z m 14,0 h 7 v 7 h -7 z m 14,0 h 7 v 7 h -7 z m 7,0 h 7 v 7 h -7 z m 7,0 h 7 v 7 h -7 z m 21,0 h 7 v 7 h -7 z m 14,0 h 7 v 7 h -7 z m 7,0 h 7 v 7 h -7 z m 21,0 h 7 v 7 h -7 z m 14,0 h 7 v 7 h -7 z m -371,7 h 7 v 7 h -7 z m 7,0 h 7 v 7 h -7 z m 7,0 h 7 v 7 h -7 z m 14,0 h 7 v 7 h -7 z m 14,0 h 7 v 7 h -7 z m 14,0 h 7 v 7 h -7 z m 21,0 h 7 v 7 h -7 z m 7,0 h 7 v 7 h -7 z m 14,0 h 7 v 7 h -7 z m 7,0 h 7 v 7 h -7 z m 14,0 h 7 v 7 h -7 z m 7,0 h 7 v 7 h -7 z m 21,0 h 7 v 7 h -7 z m 7,0 h 7 v 7 h -7 z m 7,0 h 7 v 7 h -7 z m 21,0 h 7 v 7 h -7 z m 28,0 h 7 v 7 h -7 z m 7,0 h 7 v 7 h -7 z m 7,0 h 7 v 7 h -7 z m 7,0 h 7 v 7 h -7 z m 35,0 h 7 v 7 h -7 z m 7,0 h 7 v 7 h -7 z m 7,0 h 7 v 7 h -7 z m 14,0 h 7 v 7 h -7 z m 14,0 h 7 v 7 h -7 z m 56,0 h 7 v 7 h -7 z m 7,0 h 7 v 7 h -7 z m -385,7 h 7 v 7 h -7 z m 7,0 h 7 v 7 h -7 z m 7,0 h 7 v 7 h -7 z m 7,0 h 7 v 7 h -7 z m 7,0 h 7 v 7 h -7 z m 28,0 h 7 v 7 h -7 z m 14,0 h 7 v 7 h -7 z m 14,0 h 7 v 7 h -7 z m 7,0 h 7 v 7 h -7 z m 7,0 h 7 v 7 h -7 z m 7,0 h 7 v 7 h -7 z m 7,0 h 7 v 7 h -7 z m 28,0 h 7 v 7 h -7 z m 35,0 h 7 v 7 h -7 z m 7,0 h 7 v 7 h -7 z m 14,0 h 7 v 7 h -7 z m 14,0 h 7 v 7 h -7 z m 7,0 h 7 v 7 h -7 z m 14,0 h 7 v 7 h -7 z m 35,0 h 7 v 7 h -7 z m 14,0 h 7 v 7 h -7 z m 14,0 h 7 v 7 h -7 z m 21,0 h 7 v 7 h -7 z m 7,0 h 7 v 7 h -7 z m 7,0 h 7 v 7 h -7 z m 7,0 h 7 v 7 h -7 z m 14,0 h 7 v 7 h -7 z m 21,0 h 7 v 7 h -7 z m -371,7 h 7 v 7 h -7 z m 7,0 h 7 v 7 h -7 z m 21,0 h 7 v 7 h -7 z m 7,0 h 7 v 7 h -7 z m 7,0 h 7 v 7 h -7 z m 7,0 h 7 v 7 h -7 z m 21,0 h 7 v 7 h -7 z m 7,0 h 7 v 7 h -7 z m 7,0 h 7 v 7 h -7 z m 14,0 h 7 v 7 h -7 z m 14,0 h 7 v 7 h -7 z m 21,0 h 7 v 7 h -7 z m 14,0 h 7 v 7 h -7 z m 14,0 h 7 v 7 h -7 z m 7,0 h 7 v 7 h -7 z m 21,0 h 7 v 7 h -7 z m 7,0 h 7 v 7 h -7 z m 21,0 h 7 v 7 h -7 z m 21,0 h 7 v 7 h -7 z m 7,0 h 7 v 7 h -7 z m 14,0 h 7 v 7 h -7 z m 7,0 h 7 v 7 h -7 z m 28,0 h 7 v 7 h -7 z m 7,0 h 7 v 7 h -7 z m 14,0 h 7 v 7 h -7 z m 7,0 h 7 v 7 h -7 z m 7,0 h 7 v 7 h -7 z m 7,0 h 7 v 7 h -7 z m 7,0 h 7 v 7 h -7 z m 7,0 h 7 v 7 h -7 z m 14,0 h 7 v 7 h -7 z m 7,0 h 7 v 7 h -7 z m 21,0 h 7 v 7 h -7 z m -385,7 h 7 v 7 h -7 z m 14,0 h 7 v 7 h -7 z m 28,0 h 7 v 7 h -7 z m 21,0 h 7 v 7 h -7 z m 7,0 h 7 v 7 h -7 z m 7,0 h 7 v 7 h -7 z m 35,0 h 7 v 7 h -7 z m 14,0 h 7 v 7 h -7 z m 28,0 h 7 v 7 h -7 z m 7,0 h 7 v 7 h -7 z m 21,0 h 7 v 7 h -7 z m 14,0 h 7 v 7 h -7 z m 14,0 h 7 v 7 h -7 z m 7,0 h 7 v 7 h -7 z m 14,0 h 7 v 7 h -7 z m 14,0 h 7 v 7 h -7 z m 7,0 h 7 v 7 h -7 z m 7,0 h 7 v 7 h -7 z m 7,0 h 7 v 7 h -7 z m 7,0 h 7 v 7 h -7 z m 7,0 h 7 v 7 h -7 z m 7,0 h 7 v 7 h -7 z m 7,0 h 7 v 7 h -7 z m 21,0 h 7 v 7 h -7 z m 21,0 h 7 v 7 h -7 z m 7,0 h 7 v 7 h -7 z m 7,0 h 7 v 7 h -7 z m 7,0 h 7 v 7 h -7 z m -357,7 h 7 v 7 h -7 z m 14,0 h 7 v 7 h -7 z m 21,0 h 7 v 7 h -7 z m 7,0 h 7 v 7 h -7 z m 7,0 h 7 v 7 h -7 z m 14,0 h 7 v 7 h -7 z m 14,0 h 7 v 7 h -7 z m 7,0 h 7 v 7 h -7 z m 21,0 h 7 v 7 h -7 z m 7,0 h 7 v 7 h -7 z m 42,0 h 7 v 7 h -7 z m 7,0 h 7 v 7 h -7 z m 14,0 h 7 v 7 h -7 z m 14,0 h 7 v 7 h -7 z m 7,0 h 7 v 7 h -7 z m 28,0 h 7 v 7 h -7 z m 7,0 h 7 v 7 h -7 z m 7,0 h 7 v 7 h -7 z m 7,0 h 7 v 7 h -7 z m 7,0 h 7 v 7 h -7 z m 14,0 h 7 v 7 h -7 z m 7,0 h 7 v 7 h -7 z m 14,0 h 7 v 7 h -7 z m 7,0 h 7 v 7 h -7 z m 7,0 h 7 v 7 h -7 z m 14,0 h 7 v 7 h -7 z m 7,0 h 7 v 7 h -7 z m 14,0 h 7 v 7 h -7 z m 14,0 h 7 v 7 h -7 z m 7,0 h 7 v 7 h -7 z m 7,0 h 7 v 7 h -7 z m 7,0 h 7 v 7 h -7 z m 7,0 h 7 v 7 h -7 z m 7,0 h 7 v 7 h -7 z m -392,7 h 7 v 7 h -7 z m 7,0 h 7 v 7 h -7 z m 7,0 h 7 v 7 h -7 z m 7,0 h 7 v 7 h -7 z m 7,0 h 7 v 7 h -7 z m 7,0 h 7 v 7 h -7 z m 21,0 h 7 v 7 h -7 z m 14,0 h 7 v 7 h -7 z m 14,0 h 7 v 7 h -7 z m 35,0 h 7 v 7 h -7 z m 21,0 h 7 v 7 h -7 z m 7,0 h 7 v 7 h -7 z m 7,0 h 7 v 7 h -7 z m 7,0 h 7 v 7 h -7 z m 21,0 h 7 v 7 h -7 z m 14,0 h 7 v 7 h -7 z m 56,0 h 7 v 7 h -7 z m 21,0 h 7 v 7 h -7 z m 21,0 h 7 v 7 h -7 z m 14,0 h 7 v 7 h -7 z m 21,0 h 7 v 7 h -7 z m 7,0 h 7 v 7 h -7 z m 21,0 h 7 v 7 h -7 z m 14,0 h 7 v 7 h -7 z m 7,0 h 7 v 7 h -7 z m 14,0 h 7 v 7 h -7 z m -392,7 h 7 v 7 h -7 z m 14,0 h 7 v 7 h -7 z m 7,0 h 7 v 7 h -7 z m 7,0 h 7 v 7 h -7 z m 7,0 h 7 v 7 h -7 z m 7,0 h 7 v 7 h -7 z m 7,0 h 7 v 7 h -7 z m 7,0 h 7 v 7 h -7 z m 7,0 h 7 v 7 h -7 z m 7,0 h 7 v 7 h -7 z m 7,0 h 7 v 7 h -7 z m 7,0 h 7 v 7 h -7 z m 7,0 h 7 v 7 h -7 z m 7,0 h 7 v 7 h -7 z m 7,0 h 7 v 7 h -7 z m 7,0 h 7 v 7 h -7 z m 7,0 h 7 v 7 h -7 z m 7,0 h 7 v 7 h -7 z m 21,0 h 7 v 7 h -7 z m 7,0 h 7 v 7 h -7 z m 14,0 h 7 v 7 h -7 z m 7,0 h 7 v 7 h -7 z m 7,0 h 7 v 7 h -7 z m 7,0 h 7 v 7 h -7 z m 7,0 h 7 v 7 h -7 z m 7,0 h 7 v 7 h -7 z m 7,0 h 7 v 7 h -7 z m 7,0 h 7 v 7 h -7 z m 7,0 h 7 v 7 h -7 z m 14,0 h 7 v 7 h -7 z m 21,0 h 7 v 7 h -7 z m 14,0 h 7 v 7 h -7 z m 7,0 h 7 v 7 h -7 z m 7,0 h 7 v 7 h -7 z m 7,0 h 7 v 7 h -7 z m 7,0 h 7 v 7 h -7 z m 21,0 h 7 v 7 h -7 z m 7,0 h 7 v 7 h -7 z m 7,0 h 7 v 7 h -7 z m 7,0 h 7 v 7 h -7 z m 7,0 h 7 v 7 h -7 z m 7,0 h 7 v 7 h -7 z m 7,0 h 7 v 7 h -7 z m 21,0 h 7 v 7 h -7 z m -385,7 h 7 v 7 h -7 z m 7,0 h 7 v 7 h -7 z m 7,0 h 7 v 7 h -7 z m 14,0 h 7 v 7 h -7 z m 28,0 h 7 v 7 h -7 z m 21,0 h 7 v 7 h -7 z m 7,0 h 7 v 7 h -7 z m 14,0 h 7 v 7 h -7 z m 14,0 h 7 v 7 h -7 z m 7,0 h 7 v 7 h -7 z m 7,0 h 7 v 7 h -7 z m 14,0 h 7 v 7 h -7 z m 14,0 h 7 v 7 h -7 z m 21,0 h 7 v 7 h -7 z m 7,0 h 7 v 7 h -7 z m 28,0 h 7 v 7 h -7 z m 21,0 h 7 v 7 h -7 z m 14,0 h 7 v 7 h -7 z m 7,0 h 7 v 7 h -7 z m 14,0 h 7 v 7 h -7 z m 7,0 h 7 v 7 h -7 z m 7,0 h 7 v 7 h -7 z m 7,0 h 7 v 7 h -7 z m 7,0 h 7 v 7 h -7 z m 21,0 h 7 v 7 h -7 z m 14,0 h 7 v 7 h -7 z m 7,0 h 7 v 7 h -7 z m 28,0 h 7 v 7 h -7 z m 7,0 h 7 v 7 h -7 z m 7,0 h 7 v 7 h -7 z m 7,0 h 7 v 7 h -7 z m 7,0 h 7 v 7 h -7 z m -392,7 h 7 v 7 h -7 z m 7,0 h 7 v 7 h -7 z m 14,0 h 7 v 7 h -7 z m 7,0 h 7 v 7 h -7 z m 14,0 h 7 v 7 h -7 z m 14,0 h 7 v 7 h -7 z m 28,0 h 7 v 7 h -7 z m 14,0 h 7 v 7 h -7 z m 56,0 h 7 v 7 h -7 z m 14,0 h 7 v 7 h -7 z m 7,0 h 7 v 7 h -7 z m 7,0 h 7 v 7 h -7 z m 14,0 h 7 v 7 h -7 z m 14,0 h 7 v 7 h -7 z m 21,0 h 7 v 7 h -7 z m 21,0 h 7 v 7 h -7 z m 7,0 h 7 v 7 h -7 z m 7,0 h 7 v 7 h -7 z m 7,0 h 7 v 7 h -7 z m 28,0 h 7 v 7 h -7 z m 7,0 h 7 v 7 h -7 z m 7,0 h 7 v 7 h -7 z m 7,0 h 7 v 7 h -7 z m 14,0 h 7 v 7 h -7 z m 14,0 h 7 v 7 h -7 z m 14,0 h 7 v 7 h -7 z m 7,0 h 7 v 7 h -7 z m 21,0 h 7 v 7 h -7 z m -392,7 h 7 v 7 h -7 z m 14,0 h 7 v 7 h -7 z m 14,0 h 7 v 7 h -7 z m 28,0 h 7 v 7 h -7 z m 14,0 h 7 v 7 h -7 z m 7,0 h 7 v 7 h -7 z m 7,0 h 7 v 7 h -7 z m 7,0 h 7 v 7 h -7 z m 7,0 h 7 v 7 h -7 z m 7,0 h 7 v 7 h -7 z m 7,0 h 7 v 7 h -7 z m 7,0 h 7 v 7 h -7 z m 14,0 h 7 v 7 h -7 z m 21,0 h 7 v 7 h -7 z m 7,0 h 7 v 7 h -7 z m 21,0 h 7 v 7 h -7 z m 28,0 h 7 v 7 h -7 z m 14,0 h 7 v 7 h -7 z m 14,0 h 7 v 7 h -7 z m 14,0 h 7 v 7 h -7 z m 21,0 h 7 v 7 h -7 z m 7,0 h 7 v 7 h -7 z m 14,0 h 7 v 7 h -7 z m 7,0 h 7 v 7 h -7 z m 14,0 h 7 v 7 h -7 z m 21,0 h 7 v 7 h -7 z m 28,0 h 7 v 7 h -7 z m 21,0 h 7 v 7 h -7 z m -385,7 h 7 v 7 h -7 z m 21,0 h 7 v 7 h -7 z m 7,0 h 7 v 7 h -7 z m 7,0 h 7 v 7 h -7 z m 7,0 h 7 v 7 h -7 z m 7,0 h 7 v 7 h -7 z m 7,0 h 7 v 7 h -7 z m 7,0 h 7 v 7 h -7 z m 7,0 h 7 v 7 h -7 z m 21,0 h 7 v 7 h -7 z m 7,0 h 7 v 7 h -7 z m 21,0 h 7 v 7 h -7 z m 14,0 h 7 v 7 h -7 z m 28,0 h 7 v 7 h -7 z m 7,0 h 7 v 7 h -7 z m 14,0 h 7 v 7 h -7 z m 7,0 h 7 v 7 h -7 z m 7,0 h 7 v 7 h -7 z m 7,0 h 7 v 7 h -7 z m 7,0 h 7 v 7 h -7 z m 14,0 h 7 v 7 h -7 z m 7,0 h 7 v 7 h -7 z m 21,0 h 7 v 7 h -7 z m 14,0 h 7 v 7 h -7 z m 7,0 h 7 v 7 h -7 z m 7,0 h 7 v 7 h -7 z m 7,0 h 7 v 7 h -7 z m 14,0 h 7 v 7 h -7 z m 14,0 h 7 v 7 h -7 z m 7,0 h 7 v 7 h -7 z m 14,0 h 7 v 7 h -7 z m 7,0 h 7 v 7 h -7 z m 7,0 h 7 v 7 h -7 z m 7,0 h 7 v 7 h -7 z m 7,0 h 7 v 7 h -7 z m 7,0 h 7 v 7 h -7 z m 14,0 h 7 v 7 h -7 z m 7,0 h 7 v 7 h -7 z m -392,7 h 7 v 7 h -7 z m 7,0 h 7 v 7 h -7 z m 14,0 h 7 v 7 h -7 z m 28,0 h 7 v 7 h -7 z m 7,0 h 7 v 7 h -7 z m 14,0 h 7 v 7 h -7 z m 7,0 h 7 v 7 h -7 z m 14,0 h 7 v 7 h -7 z m 7,0 h 7 v 7 h -7 z m 14,0 h 7 v 7 h -7 z m 28,0 h 7 v 7 h -7 z m 7,0 h 7 v 7 h -7 z m 7,0 h 7 v 7 h -7 z m 14,0 h 7 v 7 h -7 z m 7,0 h 7 v 7 h -7 z m 35,0 h 7 v 7 h -7 z m 21,0 h 7 v 7 h -7 z m 7,0 h 7 v 7 h -7 z m 14,0 h 7 v 7 h -7 z m 42,0 h 7 v 7 h -7 z m 7,0 h 7 v 7 h -7 z m 28,0 h 7 v 7 h -7 z m 14,0 h 7 v 7 h -7 z m 7,0 h 7 v 7 h -7 z m 21,0 h 7 v 7 h -7 z m 7,0 h 7 v 7 h -7 z m 14,0 h 7 v 7 h -7 z m -392,7 h 7 v 7 h -7 z m 7,0 h 7 v 7 h -7 z m 21,0 h 7 v 7 h -7 z m 7,0 h 7 v 7 h -7 z m 7,0 h 7 v 7 h -7 z m 7,0 h 7 v 7 h -7 z m 7,0 h 7 v 7 h -7 z m 7,0 h 7 v 7 h -7 z m 7,0 h 7 v 7 h -7 z m 7,0 h 7 v 7 h -7 z m 7,0 h 7 v 7 h -7 z m 14,0 h 7 v 7 h -7 z m 7,0 h 7 v 7 h -7 z m 7,0 h 7 v 7 h -7 z m 7,0 h 7 v 7 h -7 z m 14,0 h 7 v 7 h -7 z m 7,0 h 7 v 7 h -7 z m 7,0 h 7 v 7 h -7 z m 7,0 h 7 v 7 h -7 z m 14,0 h 7 v 7 h -7 z m 7,0 h 7 v 7 h -7 z m 7,0 h 7 v 7 h -7 z m 7,0 h 7 v 7 h -7 z m 7,0 h 7 v 7 h -7 z m 7,0 h 7 v 7 h -7 z m 21,0 h 7 v 7 h -7 z m 7,0 h 7 v 7 h -7 z m 7,0 h 7 v 7 h -7 z m 14,0 h 7 v 7 h -7 z m 7,0 h 7 v 7 h -7 z m 7,0 h 7 v 7 h -7 z m 21,0 h 7 v 7 h -7 z m 7,0 h 7 v 7 h -7 z m 7,0 h 7 v 7 h -7 z m 21,0 h 7 v 7 h -7 z m 14,0 h 7 v 7 h -7 z m 7,0 h 7 v 7 h -7 z m 14,0 h 7 v 7 h -7 z m 7,0 h 7 v 7 h -7 z m 21,0 h 7 v 7 h -7 z m -364,7 h 7 v 7 h -7 z m 14,0 h 7 v 7 h -7 z m 35,0 h 7 v 7 h -7 z m 14,0 h 7 v 7 h -7 z m 7,0 h 7 v 7 h -7 z m 14,0 h 7 v 7 h -7 z m 7,0 h 7 v 7 h -7 z m 21,0 h 7 v 7 h -7 z m 7,0 h 7 v 7 h -7 z m 7,0 h 7 v 7 h -7 z m 7,0 h 7 v 7 h -7 z m 7,0 h 7 v 7 h -7 z m 7,0 h 7 v 7 h -7 z m 7,0 h 7 v 7 h -7 z m 35,0 h 7 v 7 h -7 z m 7,0 h 7 v 7 h -7 z m 21,0 h 7 v 7 h -7 z m 14,0 h 7 v 7 h -7 z m 7,0 h 7 v 7 h -7 z m 28,0 h 7 v 7 h -7 z m 7,0 h 7 v 7 h -7 z m 7,0 h 7 v 7 h -7 z m 21,0 h 7 v 7 h -7 z m 14,0 h 7 v 7 h -7 z m 7,0 h 7 v 7 h -7 z m 7,0 h 7 v 7 h -7 z m 7,0 h 7 v 7 h -7 z m 35,0 h 7 v 7 h -7 z m -392,7 h 7 v 7 h -7 z m 7,0 h 7 v 7 h -7 z m 35,0 h 7 v 7 h -7 z m 14,0 h 7 v 7 h -7 z m 7,0 h 7 v 7 h -7 z m 35,0 h 7 v 7 h -7 z m 14,0 h 7 v 7 h -7 z m 7,0 h 7 v 7 h -7 z m 28,0 h 7 v 7 h -7 z m 7,0 h 7 v 7 h -7 z m 21,0 h 7 v 7 h -7 z m 7,0 h 7 v 7 h -7 z m 7,0 h 7 v 7 h -7 z m 7,0 h 7 v 7 h -7 z m 7,0 h 7 v 7 h -7 z m 7,0 h 7 v 7 h -7 z m 21,0 h 7 v 7 h -7 z m 7,0 h 7 v 7 h -7 z m 28,0 h 7 v 7 h -7 z m 14,0 h 7 v 7 h -7 z m 28,0 h 7 v 7 h -7 z m 21,0 h 7 v 7 h -7 z m 7,0 h 7 v 7 h -7 z m 14,0 h 7 v 7 h -7 z m 7,0 h 7 v 7 h -7 z m 7,0 h 7 v 7 h -7 z m 14,0 h 7 v 7 h -7 z m 7,0 h 7 v 7 h -7 z m -385,7 h 7 v 7 h -7 z m 7,0 h 7 v 7 h -7 z m 7,0 h 7 v 7 h -7 z m 7,0 h 7 v 7 h -7 z m 14,0 h 7 v 7 h -7 z m 21,0 h 7 v 7 h -7 z m 35,0 h 7 v 7 h -7 z m 7,0 h 7 v 7 h -7 z m 14,0 h 7 v 7 h -7 z m 7,0 h 7 v 7 h -7 z m 14,0 h 7 v 7 h -7 z m 21,0 h 7 v 7 h -7 z m 14,0 h 7 v 7 h -7 z m 14,0 h 7 v 7 h -7 z m 21,0 h 7 v 7 h -7 z m 7,0 h 7 v 7 h -7 z m 7,0 h 7 v 7 h -7 z m 7,0 h 7 v 7 h -7 z m 21,0 h 7 v 7 h -7 z m 7,0 h 7 v 7 h -7 z m 21,0 h 7 v 7 h -7 z m 7,0 h 7 v 7 h -7 z m 28,0 h 7 v 7 h -7 z m 7,0 h 7 v 7 h -7 z m 14,0 h 7 v 7 h -7 z m 14,0 h 7 v 7 h -7 z m 14,0 h 7 v 7 h -7 z m 21,0 h 7 v 7 h -7 z m 14,0 h 7 v 7 h -7 z m -392,7 h 7 v 7 h -7 z m 21,0 h 7 v 7 h -7 z m 14,0 h 7 v 7 h -7 z m 7,0 h 7 v 7 h -7 z m 21,0 h 7 v 7 h -7 z m 7,0 h 7 v 7 h -7 z m 14,0 h 7 v 7 h -7 z m 7,0 h 7 v 7 h -7 z m 7,0 h 7 v 7 h -7 z m 14,0 h 7 v 7 h -7 z m 21,0 h 7 v 7 h -7 z m 42,0 h 7 v 7 h -7 z m 14,0 h 7 v 7 h -7 z m 7,0 h 7 v 7 h -7 z m 14,0 h 7 v 7 h -7 z m 14,0 h 7 v 7 h -7 z m 7,0 h 7 v 7 h -7 z m 14,0 h 7 v 7 h -7 z m 7,0 h 7 v 7 h -7 z m 14,0 h 7 v 7 h -7 z m 7,0 h 7 v 7 h -7 z m 7,0 h 7 v 7 h -7 z m 7,0 h 7 v 7 h -7 z m 14,0 h 7 v 7 h -7 z m 7,0 h 7 v 7 h -7 z m 7,0 h 7 v 7 h -7 z m 21,0 h 7 v 7 h -7 z m 7,0 h 7 v 7 h -7 z m 7,0 h 7 v 7 h -7 z m 14,0 h 7 v 7 h -7 z m -364,7 h 7 v 7 h -7 z m 7,0 h 7 v 7 h -7 z m 7,0 h 7 v 7 h -7 z m 14,0 h 7 v 7 h -7 z m 7,0 h 7 v 7 h -7 z m 14,0 h 7 v 7 h -7 z m 28,0 h 7 v 7 h -7 z m 28,0 h 7 v 7 h -7 z m 49,0 h 7 v 7 h -7 z m 7,0 h 7 v 7 h -7 z m 7,0 h 7 v 7 h -7 z m 63,0 h 7 v 7 h -7 z m 21,0 h 7 v 7 h -7 z m 7,0 h 7 v 7 h -7 z m 7,0 h 7 v 7 h -7 z m 7,0 h 7 v 7 h -7 z m 14,0 h 7 v 7 h -7 z m 28,0 h 7 v 7 h -7 z m 7,0 h 7 v 7 h -7 z m 7,0 h 7 v 7 h -7 z m 21,0 h 7 v 7 h -7 z m 21,0 h 7 v 7 h -7 z m 21,0 h 7 v 7 h -7 z m -392,7 h 7 v 7 h -7 z m 14,0 h 7 v 7 h -7 z m 21,0 h 7 v 7 h -7 z m 7,0 h 7 v 7 h -7 z m 42,0 h 7 v 7 h -7 z m 7,0 h 7 v 7 h -7 z m 14,0 h 7 v 7 h -7 z m 7,0 h 7 v 7 h -7 z m 7,0 h 7 v 7 h -7 z m 14,0 h 7 v 7 h -7 z m 7,0 h 7 v 7 h -7 z m 21,0 h 7 v 7 h -7 z m 21,0 h 7 v 7 h -7 z m 35,0 h 7 v 7 h -7 z m 14,0 h 7 v 7 h -7 z m 7,0 h 7 v 7 h -7 z m 7,0 h 7 v 7 h -7 z m 28,0 h 7 v 7 h -7 z m 7,0 h 7 v 7 h -7 z m 14,0 h 7 v 7 h -7 z m 14,0 h 7 v 7 h -7 z m 7,0 h 7 v 7 h -7 z m 7,0 h 7 v 7 h -7 z m 7,0 h 7 v 7 h -7 z m 7,0 h 7 v 7 h -7 z m 7,0 h 7 v 7 h -7 z m 21,0 h 7 v 7 h -7 z m 21,0 h 7 v 7 h -7 z m -371,7 h 7 v 7 h -7 z m 7,0 h 7 v 7 h -7 z m 14,0 h 7 v 7 h -7 z m 14,0 h 7 v 7 h -7 z m 21,0 h 7 v 7 h -7 z m 35,0 h 7 v 7 h -7 z m 14,0 h 7 v 7 h -7 z m 14,0 h 7 v 7 h -7 z m 14,0 h 7 v 7 h -7 z m 7,0 h 7 v 7 h -7 z m 7,0 h 7 v 7 h -7 z m 7,0 h 7 v 7 h -7 z m 21,0 h 7 v 7 h -7 z m 7,0 h 7 v 7 h -7 z m 28,0 h 7 v 7 h -7 z m 14,0 h 7 v 7 h -7 z m 7,0 h 7 v 7 h -7 z m 21,0 h 7 v 7 h -7 z m 14,0 h 7 v 7 h -7 z m 14,0 h 7 v 7 h -7 z m 7,0 h 7 v 7 h -7 z m 7,0 h 7 v 7 h -7 z m 7,0 h 7 v 7 h -7 z m 28,0 h 7 v 7 h -7 z m 7,0 h 7 v 7 h -7 z m 14,0 h 7 v 7 h -7 z m 7,0 h 7 v 7 h -7 z m 14,0 h 7 v 7 h -7 z m 7,0 h 7 v 7 h -7 z m -371,7 h 7 v 7 h -7 z m 14,0 h 7 v 7 h -7 z m 7,0 h 7 v 7 h -7 z m 7,0 h 7 v 7 h -7 z m 14,0 h 7 v 7 h -7 z m 7,0 h 7 v 7 h -7 z m 28,0 h 7 v 7 h -7 z m 21,0 h 7 v 7 h -7 z m 7,0 h 7 v 7 h -7 z m 28,0 h 7 v 7 h -7 z m 7,0 h 7 v 7 h -7 z m 7,0 h 7 v 7 h -7 z m 7,0 h 7 v 7 h -7 z m 14,0 h 7 v 7 h -7 z m 7,0 h 7 v 7 h -7 z m 14,0 h 7 v 7 h -7 z m 14,0 h 7 v 7 h -7 z m 28,0 h 7 v 7 h -7 z m 7,0 h 7 v 7 h -7 z m 7,0 h 7 v 7 h -7 z m 14,0 h 7 v 7 h -7 z m 14,0 h 7 v 7 h -7 z m 14,0 h 7 v 7 h -7 z m 7,0 h 7 v 7 h -7 z m 7,0 h 7 v 7 h -7 z m 14,0 h 7 v 7 h -7 z m 7,0 h 7 v 7 h -7 z m 7,0 h 7 v 7 h -7 z m 14,0 h 7 v 7 h -7 z m 7,0 h 7 v 7 h -7 z m 7,0 h 7 v 7 h -7 z m 14,0 h 7 v 7 h -7 z m -357,7 h 7 v 7 h -7 z m 21,0 h 7 v 7 h -7 z m 7,0 h 7 v 7 h -7 z m 28,0 h 7 v 7 h -7 z m 7,0 h 7 v 7 h -7 z m 28,0 h 7 v 7 h -7 z m 7,0 h 7 v 7 h -7 z m 7,0 h 7 v 7 h -7 z m 7,0 h 7 v 7 h -7 z m 28,0 h 7 v 7 h -7 z m 7,0 h 7 v 7 h -7 z m 21,0 h 7 v 7 h -7 z m 7,0 h 7 v 7 h -7 z m 7,0 h 7 v 7 h -7 z m 14,0 h 7 v 7 h -7 z m 7,0 h 7 v 7 h -7 z m 7,0 h 7 v 7 h -7 z m 42,0 h 7 v 7 h -7 z m 7,0 h 7 v 7 h -7 z m 7,0 h 7 v 7 h -7 z m 14,0 h 7 v 7 h -7 z m 42,0 h 7 v 7 h -7 z m 7,0 h 7 v 7 h -7 z m 7,0 h 7 v 7 h -7 z m 7,0 h 7 v 7 h -7 z m -378,7 h 7 v 7 h -7 z m 35,0 h 7 v 7 h -7 z m 7,0 h 7 v 7 h -7 z m 14,0 h 7 v 7 h -7 z m 14,0 h 7 v 7 h -7 z m 7,0 h 7 v 7 h -7 z m 7,0 h 7 v 7 h -7 z m 7,0 h 7 v 7 h -7 z m 7,0 h 7 v 7 h -7 z m 7,0 h 7 v 7 h -7 z m 7,0 h 7 v 7 h -7 z m 14,0 h 7 v 7 h -7 z m 7,0 h 7 v 7 h -7 z m 7,0 h 7 v 7 h -7 z m 7,0 h 7 v 7 h -7 z m 14,0 h 7 v 7 h -7 z m 7,0 h 7 v 7 h -7 z m 14,0 h 7 v 7 h -7 z m 35,0 h 7 v 7 h -7 z m 14,0 h 7 v 7 h -7 z m 14,0 h 7 v 7 h -7 z m 7,0 h 7 v 7 h -7 z m 14,0 h 7 v 7 h -7 z m 28,0 h 7 v 7 h -7 z m 7,0 h 7 v 7 h -7 z m 7,0 h 7 v 7 h -7 z m 7,0 h 7 v 7 h -7 z m 7,0 h 7 v 7 h -7 z m 28,0 h 7 v 7 h -7 z m 7,0 h 7 v 7 h -7 z m 7,0 h 7 v 7 h -7 z m 14,0 h 7 v 7 h -7 z m -371,7 h 7 v 7 h -7 z m 7,0 h 7 v 7 h -7 z m 7,0 h 7 v 7 h -7 z m 42,0 h 7 v 7 h -7 z m 7,0 h 7 v 7 h -7 z m 7,0 h 7 v 7 h -7 z m 7,0 h 7 v 7 h -7 z m 21,0 h 7 v 7 h -7 z m 7,0 h 7 v 7 h -7 z m 7,0 h 7 v 7 h -7 z m 42,0 h 7 v 7 h -7 z m 21,0 h 7 v 7 h -7 z m 14,0 h 7 v 7 h -7 z m 28,0 h 7 v 7 h -7 z m 14,0 h 7 v 7 h -7 z m 7,0 h 7 v 7 h -7 z m 28,0 h 7 v 7 h -7 z m 14,0 h 7 v 7 h -7 z m 21,0 h 7 v 7 h -7 z m 14,0 h 7 v 7 h -7 z m 14,0 h 7 v 7 h -7 z m 42,0 h 7 v 7 h -7 z m 7,0 h 7 v 7 h -7 z m -378,7 h 7 v 7 h -7 z m 7,0 h 7 v 7 h -7 z m 28,0 h 7 v 7 h -7 z m 7,0 h 7 v 7 h -7 z m 7,0 h 7 v 7 h -7 z m 14,0 h 7 v 7 h -7 z m 7,0 h 7 v 7 h -7 z m 7,0 h 7 v 7 h -7 z m 7,0 h 7 v 7 h -7 z m 14,0 h 7 v 7 h -7 z m 14,0 h 7 v 7 h -7 z m 14,0 h 7 v 7 h -7 z m 7,0 h 7 v 7 h -7 z m 28,0 h 7 v 7 h -7 z m 14,0 h 7 v 7 h -7 z m 28,0 h 7 v 7 h -7 z m 14,0 h 7 v 7 h -7 z m 28,0 h 7 v 7 h -7 z m 7,0 h 7 v 7 h -7 z m 7,0 h 7 v 7 h -7 z m 7,0 h 7 v 7 h -7 z m 7,0 h 7 v 7 h -7 z m 21,0 h 7 v 7 h -7 z m 14,0 h 7 v 7 h -7 z m 35,0 h 7 v 7 h -7 z m 7,0 h 7 v 7 h -7 z m 14,0 h 7 v 7 h -7 z m 7,0 h 7 v 7 h -7 z m 14,0 h 7 v 7 h -7 z m -371,7 h 7 v 7 h -7 z m 14,0 h 7 v 7 h -7 z m 28,0 h 7 v 7 h -7 z m 7,0 h 7 v 7 h -7 z m 7,0 h 7 v 7 h -7 z m 14,0 h 7 v 7 h -7 z m 21,0 h 7 v 7 h -7 z m 7,0 h 7 v 7 h -7 z m 7,0 h 7 v 7 h -7 z m 7,0 h 7 v 7 h -7 z m 28,0 h 7 v 7 h -7 z m 7,0 h 7 v 7 h -7 z m 7,0 h 7 v 7 h -7 z m 21,0 h 7 v 7 h -7 z m 14,0 h 7 v 7 h -7 z m 14,0 h 7 v 7 h -7 z m 7,0 h 7 v 7 h -7 z m 21,0 h 7 v 7 h -7 z m 7,0 h 7 v 7 h -7 z m 14,0 h 7 v 7 h -7 z m 7,0 h 7 v 7 h -7 z m 7,0 h 7 v 7 h -7 z m 14,0 h 7 v 7 h -7 z m 7,0 h 7 v 7 h -7 z m 14,0 h 7 v 7 h -7 z m 14,0 h 7 v 7 h -7 z m 7,0 h 7 v 7 h -7 z m 7,0 h 7 v 7 h -7 z m 7,0 h 7 v 7 h -7 z m 7,0 h 7 v 7 h -7 z m 7,0 h 7 v 7 h -7 z m -371,7 h 7 v 7 h -7 z m 14,0 h 7 v 7 h -7 z m 21,0 h 7 v 7 h -7 z m 7,0 h 7 v 7 h -7 z m 7,0 h 7 v 7 h -7 z m 7,0 h 7 v 7 h -7 z m 14,0 h 7 v 7 h -7 z m 7,0 h 7 v 7 h -7 z m 7,0 h 7 v 7 h -7 z m 14,0 h 7 v 7 h -7 z m 49,0 h 7 v 7 h -7 z m 21,0 h 7 v 7 h -7 z m 14,0 h 7 v 7 h -7 z m 7,0 h 7 v 7 h -7 z m 7,0 h 7 v 7 h -7 z m 7,0 h 7 v 7 h -7 z m 21,0 h 7 v 7 h -7 z m 21,0 h 7 v 7 h -7 z m 21,0 h 7 v 7 h -7 z m 7,0 h 7 v 7 h -7 z m 14,0 h 7 v 7 h -7 z m 7,0 h 7 v 7 h -7 z m 14,0 h 7 v 7 h -7 z m 7,0 h 7 v 7 h -7 z m 7,0 h 7 v 7 h -7 z m 7,0 h 7 v 7 h -7 z m 7,0 h 7 v 7 h -7 z m 14,0 h 7 v 7 h -7 z m 14,0 h 7 v 7 h -7 z m 7,0 h 7 v 7 h -7 z m 21,0 h 7 v 7 h -7 z m -392,7 h 7 v 7 h -7 z m 7,0 h 7 v 7 h -7 z m 7,0 h 7 v 7 h -7 z m 7,0 h 7 v 7 h -7 z m 7,0 h 7 v 7 h -7 z m 49,0 h 7 v 7 h -7 z m 14,0 h 7 v 7 h -7 z m 14,0 h 7 v 7 h -7 z m 21,0 h 7 v 7 h -7 z m 7,0 h 7 v 7 h -7 z m 7,0 h 7 v 7 h -7 z m 28,0 h 7 v 7 h -7 z m 14,0 h 7 v 7 h -7 z m 7,0 h 7 v 7 h -7 z m 7,0 h 7 v 7 h -7 z m 14,0 h 7 v 7 h -7 z m 7,0 h 7 v 7 h -7 z m 7,0 h 7 v 7 h -7 z m 35,0 h 7 v 7 h -7 z m 7,0 h 7 v 7 h -7 z m 7,0 h 7 v 7 h -7 z m 14,0 h 7 v 7 h -7 z m 7,0 h 7 v 7 h -7 z m 21,0 h 7 v 7 h -7 z m 7,0 h 7 v 7 h -7 z m 7,0 h 7 v 7 h -7 z m 21,0 h 7 v 7 h -7 z m 14,0 h 7 v 7 h -7 z m 21,0 h 7 v 7 h -7 z m 7,0 h 7 v 7 h -7 z m -350,7 h 7 v 7 h -7 z m 14,0 h 7 v 7 h -7 z m 7,0 h 7 v 7 h -7 z m 14,0 h 7 v 7 h -7 z m 28,0 h 7 v 7 h -7 z m 21,0 h 7 v 7 h -7 z m 14,0 h 7 v 7 h -7 z m 14,0 h 7 v 7 h -7 z m 7,0 h 7 v 7 h -7 z m 7,0 h 7 v 7 h -7 z m 7,0 h 7 v 7 h -7 z m 7,0 h 7 v 7 h -7 z m 7,0 h 7 v 7 h -7 z m 7,0 h 7 v 7 h -7 z m 7,0 h 7 v 7 h -7 z m 7,0 h 7 v 7 h -7 z m 7,0 h 7 v 7 h -7 z m 35,0 h 7 v 7 h -7 z m 7,0 h 7 v 7 h -7 z m 21,0 h 7 v 7 h -7 z m 14,0 h 7 v 7 h -7 z m 21,0 h 7 v 7 h -7 z m 7,0 h 7 v 7 h -7 z m 14,0 h 7 v 7 h -7 z m 7,0 h 7 v 7 h -7 z m 7,0 h 7 v 7 h -7 z m 7,0 h 7 v 7 h -7 z m 7,0 h 7 v 7 h -7 z m 7,0 h 7 v 7 h -7 z m 7,0 h 7 v 7 h -7 z m -322,7 h 7 v 7 h -7 z m 7,0 h 7 v 7 h -7 z m 7,0 h 7 v 7 h -7 z m 28,0 h 7 v 7 h -7 z m 21,0 h 7 v 7 h -7 z m 7,0 h 7 v 7 h -7 z m 7,0 h 7 v 7 h -7 z m 21,0 h 7 v 7 h -7 z m 7,0 h 7 v 7 h -7 z m 7,0 h 7 v 7 h -7 z m 14,0 h 7 v 7 h -7 z m 28,0 h 7 v 7 h -7 z m 21,0 h 7 v 7 h -7 z m 42,0 h 7 v 7 h -7 z m 7,0 h 7 v 7 h -7 z m 14,0 h 7 v 7 h -7 z m 7,0 h 7 v 7 h -7 z m 14,0 h 7 v 7 h -7 z m 21,0 h 7 v 7 h -7 z m 28,0 h 7 v 7 h -7 z m 14,0 h 7 v 7 h -7 z m 7,0 h 7 v 7 h -7 z m -385,7 h 7 v 7 h -7 z m 7,0 h 7 v 7 h -7 z m 7,0 h 7 v 7 h -7 z m 7,0 h 7 v 7 h -7 z m 7,0 h 7 v 7 h -7 z m 7,0 h 7 v 7 h -7 z m 7,0 h 7 v 7 h -7 z m 14,0 h 7 v 7 h -7 z m 7,0 h 7 v 7 h -7 z m 7,0 h 7 v 7 h -7 z m 14,0 h 7 v 7 h -7 z m 7,0 h 7 v 7 h -7 z m 21,0 h 7 v 7 h -7 z m 21,0 h 7 v 7 h -7 z m 14,0 h 7 v 7 h -7 z m 7,0 h 7 v 7 h -7 z m 7,0 h 7 v 7 h -7 z m 7,0 h 7 v 7 h -7 z m 7,0 h 7 v 7 h -7 z m 7,0 h 7 v 7 h -7 z m 14,0 h 7 v 7 h -7 z m 14,0 h 7 v 7 h -7 z m 14,0 h 7 v 7 h -7 z m 7,0 h 7 v 7 h -7 z m 21,0 h 7 v 7 h -7 z m 7,0 h 7 v 7 h -7 z m 14,0 h 7 v 7 h -7 z m 7,0 h 7 v 7 h -7 z m 7,0 h 7 v 7 h -7 z m 7,0 h 7 v 7 h -7 z m 14,0 h 7 v 7 h -7 z m 21,0 h 7 v 7 h -7 z m 7,0 h 7 v 7 h -7 z m 14,0 h 7 v 7 h -7 z m 14,0 h 7 v 7 h -7 z m 7,0 h 7 v 7 h -7 z m 7,0 h 7 v 7 h -7 z m -378,7 h 7 v 7 h -7 z m 42,0 h 7 v 7 h -7 z m 21,0 h 7 v 7 h -7 z m 7,0 h 7 v 7 h -7 z m 21,0 h 7 v 7 h -7 z m 7,0 h 7 v 7 h -7 z m 7,0 h 7 v 7 h -7 z m 56,0 h 7 v 7 h -7 z m 7,0 h 7 v 7 h -7 z m 7,0 h 7 v 7 h -7 z m 7,0 h 7 v 7 h -7 z m 28,0 h 7 v 7 h -7 z m 7,0 h 7 v 7 h -7 z m 28,0 h 7 v 7 h -7 z m 14,0 h 7 v 7 h -7 z m 14,0 h 7 v 7 h -7 z m 14,0 h 7 v 7 h -7 z m 14,0 h 7 v 7 h -7 z m 7,0 h 7 v 7 h -7 z m 7,0 h 7 v 7 h -7 z m 7,0 h 7 v 7 h -7 z m 7,0 h 7 v 7 h -7 z m 7,0 h 7 v 7 h -7 z m 28,0 h 7 v 7 h -7 z m 14,0 h 7 v 7 h -7 z m 7,0 h 7 v 7 h -7 z m 7,0 h 7 v 7 h -7 z m -392,7 h 7 v 7 h -7 z m 14,0 h 7 v 7 h -7 z m 7,0 h 7 v 7 h -7 z m 7,0 h 7 v 7 h -7 z m 14,0 h 7 v 7 h -7 z m 14,0 h 7 v 7 h -7 z m 7,0 h 7 v 7 h -7 z m 7,0 h 7 v 7 h -7 z m 14,0 h 7 v 7 h -7 z m 7,0 h 7 v 7 h -7 z m 49,0 h 7 v 7 h -7 z m 28,0 h 7 v 7 h -7 z m 14,0 h 7 v 7 h -7 z m 7,0 h 7 v 7 h -7 z m 7,0 h 7 v 7 h -7 z m 7,0 h 7 v 7 h -7 z m 7,0 h 7 v 7 h -7 z m 21,0 h 7 v 7 h -7 z m 28,0 h 7 v 7 h -7 z m 7,0 h 7 v 7 h -7 z m 21,0 h 7 v 7 h -7 z m 21,0 h 7 v 7 h -7 z m 7,0 h 7 v 7 h -7 z m 21,0 h 7 v 7 h -7 z m 7,0 h 7 v 7 h -7 z m 7,0 h 7 v 7 h -7 z m 7,0 h 7 v 7 h -7 z m 7,0 h 7 v 7 h -7 z m 14,0 h 7 v 7 h -7 z m 7,0 h 7 v 7 h -7 z m 7,0 h 7 v 7 h -7 z m -392,7 h 7 v 7 h -7 z m 14,0 h 7 v 7 h -7 z m 7,0 h 7 v 7 h -7 z m 7,0 h 7 v 7 h -7 z m 14,0 h 7 v 7 h -7 z m 14,0 h 7 v 7 h -7 z m 21,0 h 7 v 7 h -7 z m 14,0 h 7 v 7 h -7 z m 14,0 h 7 v 7 h -7 z m 21,0 h 7 v 7 h -7 z m 35,0 h 7 v 7 h -7 z m 14,0 h 7 v 7 h -7 z m 14,0 h 7 v 7 h -7 z m 21,0 h 7 v 7 h -7 z m 7,0 h 7 v 7 h -7 z m 7,0 h 7 v 7 h -7 z m 14,0 h 7 v 7 h -7 z m 7,0 h 7 v 7 h -7 z m 21,0 h 7 v 7 h -7 z m 7,0 h 7 v 7 h -7 z m 7,0 h 7 v 7 h -7 z m 21,0 h 7 v 7 h -7 z m 14,0 h 7 v 7 h -7 z m 7,0 h 7 v 7 h -7 z m 14,0 h 7 v 7 h -7 z m 21,0 h 7 v 7 h -7 z m 14,0 h 7 v 7 h -7 z m 7,0 h 7 v 7 h -7 z m -378,7 h 7 v 7 h -7 z m 14,0 h 7 v 7 h -7 z m 7,0 h 7 v 7 h -7 z m 7,0 h 7 v 7 h -7 z m 14,0 h 7 v 7 h -7 z m 21,0 h 7 v 7 h -7 z m 7,0 h 7 v 7 h -7 z m 7,0 h 7 v 7 h -7 z m 28,0 h 7 v 7 h -7 z m 14,0 h 7 v 7 h -7 z m 7,0 h 7 v 7 h -7 z m 21,0 h 7 v 7 h -7 z m 14,0 h 7 v 7 h -7 z m 28,0 h 7 v 7 h -7 z m 7,0 h 7 v 7 h -7 z m 7,0 h 7 v 7 h -7 z m 7,0 h 7 v 7 h -7 z m 21,0 h 7 v 7 h -7 z m 14,0 h 7 v 7 h -7 z m 21,0 h 7 v 7 h -7 z m 7,0 h 7 v 7 h -7 z m 14,0 h 7 v 7 h -7 z m 7,0 h 7 v 7 h -7 z m 7,0 h 7 v 7 h -7 z m 7,0 h 7 v 7 h -7 z m 7,0 h 7 v 7 h -7 z m 14,0 h 7 v 7 h -7 z m 7,0 h 7 v 7 h -7 z m 14,0 h 7 v 7 h -7 z m 14,0 h 7 v 7 h -7 z m 14,0 h 7 v 7 h -7 z m 7,0 h 7 v 7 h -7 z m 7,0 h 7 v 7 h -7 z m -392,7 h 7 v 7 h -7 z m 42,0 h 7 v 7 h -7 z m 35,0 h 7 v 7 h -7 z m 14,0 h 7 v 7 h -7 z m 21,0 h 7 v 7 h -7 z m 35,0 h 7 v 7 h -7 z m 7,0 h 7 v 7 h -7 z m 14,0 h 7 v 7 h -7 z m 7,0 h 7 v 7 h -7 z m 21,0 h 7 v 7 h -7 z m 7,0 h 7 v 7 h -7 z m 14,0 h 7 v 7 h -7 z m 21,0 h 7 v 7 h -7 z m 7,0 h 7 v 7 h -7 z m 14,0 h 7 v 7 h -7 z m 7,0 h 7 v 7 h -7 z m 21,0 h 7 v 7 h -7 z m 14,0 h 7 v 7 h -7 z m 7,0 h 7 v 7 h -7 z m 7,0 h 7 v 7 h -7 z m 7,0 h 7 v 7 h -7 z m 7,0 h 7 v 7 h -7 z m 7,0 h 7 v 7 h -7 z m 14,0 h 7 v 7 h -7 z m 28,0 h 7 v 7 h -7 z m 7,0 h 7 v 7 h -7 z m 7,0 h 7 v 7 h -7 z m -392,7 h 7 v 7 h -7 z m 7,0 h 7 v 7 h -7 z m 7,0 h 7 v 7 h -7 z m 7,0 h 7 v 7 h -7 z m 7,0 h 7 v 7 h -7 z m 7,0 h 7 v 7 h -7 z m 7,0 h 7 v 7 h -7 z m 35,0 h 7 v 7 h -7 z m 7,0 h 7 v 7 h -7 z m 7,0 h 7 v 7 h -7 z m 7,0 h 7 v 7 h -7 z m 7,0 h 7 v 7 h -7 z m 14,0 h 7 v 7 h -7 z m 14,0 h 7 v 7 h -7 z m 21,0 h 7 v 7 h -7 z m 14,0 h 7 v 7 h -7 z m 7,0 h 7 v 7 h -7 z m 7,0 h 7 v 7 h -7 z m 14,0 h 7 v 7 h -7 z m 49,0 h 7 v 7 h -7 z m 14,0 h 7 v 7 h -7 z m 7,0 h 7 v 7 h -7 z m 42,0 h 7 v 7 h -7 z m 7,0 h 7 v 7 h -7 z m 21,0 h 7 v 7 h -7 z m 7,0 h 7 v 7 h -7 z m 7,0 h 7 v 7 h -7 z m 7,0 h 7 v 7 h -7 z m 14,0 h 7 v 7 h -7 z m 7,0 h 7 v 7 h -7 z"
       id="path1"
       style="fill:url(#radialGradient10)" /></g></svg>
